<svg width="1200" height="700" viewBox="0 0 1200 700" fill="none" xmlns="http://www.w3.org/2000/svg" role="img" aria-labelledby="title desc">
  <title id="title">Camara de cine</title>
  <desc id="desc">Ilustracion de una camara de cine clasica sobre tripode</desc>
  <defs>
    <linearGradient id="bg" x1="0" y1="0" x2="1200" y2="700" gradientUnits="userSpaceOnUse">
      <stop stop-color="#0B1020"/>
      <stop offset="1" stop-color="#1F2937"/>
    </linearGradient>
    <linearGradient id="metal" x1="320" y1="220" x2="920" y2="460" gradientUnits="userSpaceOnUse">
      <stop stop-color="#E5E7EB"/>
      <stop offset="1" stop-color="#9CA3AF"/>
    </linearGradient>
    <radialGradient id="reel" cx="0" cy="0" r="1" gradientUnits="userSpaceOnUse" gradientTransform="translate(0 0) scale(120)">
      <stop stop-color="#F3F4F6"/>
      <stop offset="1" stop-color="#6B7280"/>
    </radialGradient>
  </defs>

  <rect width="1200" height="700" fill="url(#bg)"/>

  <ellipse cx="600" cy="610" rx="360" ry="34" fill="#000000" fill-opacity="0.28"/>

  <g transform="translate(0 0)">
    <circle cx="455" cy="235" r="105" fill="url(#reel)"/>
    <circle cx="455" cy="235" r="68" fill="#374151"/>
    <circle cx="455" cy="235" r="18" fill="#D1D5DB"/>
    <circle cx="745" cy="195" r="90" fill="url(#reel)"/>
    <circle cx="745" cy="195" r="58" fill="#374151"/>
    <circle cx="745" cy="195" r="15" fill="#D1D5DB"/>

    <path d="M355 290H845C867 290 885 308 885 330V420C885 442 867 460 845 460H355C333 460 315 442 315 420V330C315 308 333 290 355 290Z" fill="url(#metal)"/>

    <rect x="880" y="342" width="138" height="66" rx="16" fill="#9CA3AF"/>
    <path d="M1012 352L1120 316V432L1012 396V352Z" fill="#6B7280"/>
    <rect x="905" y="360" width="54" height="28" rx="14" fill="#111827"/>
    <circle cx="932" cy="374" r="10" fill="#60A5FA"/>

    <rect x="330" y="458" width="540" height="24" rx="12" fill="#4B5563"/>

    <g fill="#9CA3AF">
      <rect x="502" y="482" width="14" height="120" rx="7" transform="rotate(12 502 482)"/>
      <rect x="612" y="482" width="14" height="138" rx="7"/>
      <rect x="722" y="482" width="14" height="120" rx="7" transform="rotate(-12 722 482)"/>
    </g>

    <g fill="#374151" opacity="0.9">
      <circle cx="420" cy="210" r="16"/>
      <circle cx="490" cy="180" r="12"/>
      <circle cx="430" cy="280" r="12"/>
      <circle cx="785" cy="165" r="14"/>
      <circle cx="700" cy="205" r="11"/>
      <circle cx="780" cy="250" r="10"/>
    </g>
  </g>
</svg>
