<svg width="1200" height="700" viewBox="0 0 1200 700" fill="none" xmlns="http://www.w3.org/2000/svg" role="img" aria-labelledby="title desc">
  <title id="title">Sala de cine</title>
  <desc id="desc">Ilustración de una sala de cine con butacas rojas y una pantalla</desc>
  <defs>
    <linearGradient id="bg" x1="0" y1="0" x2="0" y2="700" gradientUnits="userSpaceOnUse">
      <stop stop-color="#0F172A"/>
      <stop offset="1" stop-color="#020617"/>
    </linearGradient>
    <linearGradient id="screen" x1="0" y1="70" x2="1200" y2="210" gradientUnits="userSpaceOnUse">
      <stop stop-color="#E2E8F0"/>
      <stop offset="0.5" stop-color="#FFFFFF"/>
      <stop offset="1" stop-color="#E2E8F0"/>
    </linearGradient>
    <linearGradient id="seat" x1="0" y1="0" x2="0" y2="90" gradientUnits="userSpaceOnUse">
      <stop stop-color="#EF4444"/>
      <stop offset="1" stop-color="#991B1B"/>
    </linearGradient>
  </defs>

  <rect width="1200" height="700" fill="url(#bg)"/>
  <rect x="80" y="70" width="1040" height="140" rx="18" fill="url(#screen)"/>
  <rect x="88" y="78" width="1024" height="124" rx="14" stroke="#CBD5E1" stroke-opacity="0.6" stroke-width="2"/>

  <g opacity="0.14" fill="#F8FAFC">
    <circle cx="180" cy="280" r="2"/>
    <circle cx="330" cy="320" r="2"/>
    <circle cx="520" cy="270" r="2"/>
    <circle cx="740" cy="330" r="2"/>
    <circle cx="930" cy="285" r="2"/>
    <circle cx="1080" cy="318" r="2"/>
  </g>

  <g transform="translate(90 300)">
    <g fill="url(#seat)">
      <rect x="0" y="0" width="95" height="88" rx="14"/>
      <rect x="110" y="0" width="95" height="88" rx="14"/>
      <rect x="220" y="0" width="95" height="88" rx="14"/>
      <rect x="330" y="0" width="95" height="88" rx="14"/>
      <rect x="440" y="0" width="95" height="88" rx="14"/>
      <rect x="550" y="0" width="95" height="88" rx="14"/>
      <rect x="660" y="0" width="95" height="88" rx="14"/>
      <rect x="770" y="0" width="95" height="88" rx="14"/>
      <rect x="880" y="0" width="95" height="88" rx="14"/>
      <rect x="990" y="0" width="95" height="88" rx="14"/>
    </g>
    <g fill="#7F1D1D">
      <rect x="10" y="88" width="75" height="18" rx="8"/>
      <rect x="120" y="88" width="75" height="18" rx="8"/>
      <rect x="230" y="88" width="75" height="18" rx="8"/>
      <rect x="340" y="88" width="75" height="18" rx="8"/>
      <rect x="450" y="88" width="75" height="18" rx="8"/>
      <rect x="560" y="88" width="75" height="18" rx="8"/>
      <rect x="670" y="88" width="75" height="18" rx="8"/>
      <rect x="780" y="88" width="75" height="18" rx="8"/>
      <rect x="890" y="88" width="75" height="18" rx="8"/>
      <rect x="1000" y="88" width="75" height="18" rx="8"/>
    </g>
  </g>

  <g transform="translate(145 450) scale(0.92)">
    <g fill="url(#seat)">
      <rect x="0" y="0" width="95" height="88" rx="14"/>
      <rect x="110" y="0" width="95" height="88" rx="14"/>
      <rect x="220" y="0" width="95" height="88" rx="14"/>
      <rect x="330" y="0" width="95" height="88" rx="14"/>
      <rect x="440" y="0" width="95" height="88" rx="14"/>
      <rect x="550" y="0" width="95" height="88" rx="14"/>
      <rect x="660" y="0" width="95" height="88" rx="14"/>
      <rect x="770" y="0" width="95" height="88" rx="14"/>
      <rect x="880" y="0" width="95" height="88" rx="14"/>
    </g>
    <g fill="#7F1D1D">
      <rect x="10" y="88" width="75" height="18" rx="8"/>
      <rect x="120" y="88" width="75" height="18" rx="8"/>
      <rect x="230" y="88" width="75" height="18" rx="8"/>
      <rect x="340" y="88" width="75" height="18" rx="8"/>
      <rect x="450" y="88" width="75" height="18" rx="8"/>
      <rect x="560" y="88" width="75" height="18" rx="8"/>
      <rect x="670" y="88" width="75" height="18" rx="8"/>
      <rect x="780" y="88" width="75" height="18" rx="8"/>
      <rect x="890" y="88" width="75" height="18" rx="8"/>
    </g>
  </g>
</svg>
